<?xml version="1.0" encoding="UTF-8" standalone="no"?>
<!DOCTYPE svg PUBLIC "-//W3C//DTD SVG 1.1//EN"
 "http://www.w3.org/Graphics/SVG/1.1/DTD/svg11.dtd">
<!-- Generated by graphviz version 11.0.0 (20240428.1522)
 -->
<!-- Pages: 1 -->
<svg width="1048pt" height="128pt"
 viewBox="0.00 0.00 1048.20 128.00" xmlns="http://www.w3.org/2000/svg" xmlns:xlink="http://www.w3.org/1999/xlink">
<g id="graph0" class="graph" transform="scale(1 1) rotate(0) translate(4 124)">
<polygon fill="white" stroke="none" points="-4,4 -4,-124 1044.2,-124 1044.2,4 -4,4"/>
<!-- 2765280218720 -->
<g id="node1" class="node">
<title>2765280218720</title>
<polygon fill="none" stroke="black" points="877.7,-27.5 877.7,-63.5 1040.2,-63.5 1040.2,-27.5 877.7,-27.5"/>
<text text-anchor="middle" x="917.95" y="-40.2" font-family="Times New Roman,serif" font-size="14.00">data 3.0000</text>
<polyline fill="none" stroke="black" points="958.2,-27.75 958.2,-63.5"/>
<text text-anchor="middle" x="999.2" y="-40.2" font-family="Times New Roman,serif" font-size="14.00">grad 1.0000</text>
</g>
<!-- 2765280218720ReLU -->
<g id="node2" class="node">
<title>2765280218720ReLU</title>
<ellipse fill="none" stroke="black" cx="808.6" cy="-45.5" rx="33.1" ry="18"/>
<text text-anchor="middle" x="808.6" y="-40.08" font-family="Times New Roman,serif" font-size="14.00">ReLU</text>
</g>
<!-- 2765280218720ReLU&#45;&gt;2765280218720 -->
<g id="edge1" class="edge">
<title>2765280218720ReLU&#45;&gt;2765280218720</title>
<path fill="none" stroke="black" d="M842.16,-45.5C849.51,-45.5 857.67,-45.5 866.16,-45.5"/>
<polygon fill="black" stroke="black" points="865.95,-49 875.95,-45.5 865.95,-42 865.95,-49"/>
</g>
<!-- 2765279838816 -->
<g id="node3" class="node">
<title>2765279838816</title>
<polygon fill="none" stroke="black" points="0,-83.5 0,-119.5 162.5,-119.5 162.5,-83.5 0,-83.5"/>
<text text-anchor="middle" x="40.25" y="-96.2" font-family="Times New Roman,serif" font-size="14.00">data 1.0000</text>
<polyline fill="none" stroke="black" points="80.5,-83.75 80.5,-119.5"/>
<text text-anchor="middle" x="121.5" y="-96.2" font-family="Times New Roman,serif" font-size="14.00">grad 2.0000</text>
</g>
<!-- 2765280217424* -->
<g id="node6" class="node">
<title>2765280217424*</title>
<ellipse fill="none" stroke="black" cx="225.5" cy="-73.5" rx="27" ry="18"/>
<text text-anchor="middle" x="225.5" y="-68.08" font-family="Times New Roman,serif" font-size="14.00">*</text>
</g>
<!-- 2765279838816&#45;&gt;2765280217424* -->
<g id="edge7" class="edge">
<title>2765279838816&#45;&gt;2765280217424*</title>
<path fill="none" stroke="black" d="M162.93,-85.62C171.68,-83.9 180.23,-82.21 188.04,-80.68"/>
<polygon fill="black" stroke="black" points="188.63,-84.13 197.77,-78.76 187.28,-77.26 188.63,-84.13"/>
</g>
<!-- 2765279841936 -->
<g id="node4" class="node">
<title>2765279841936</title>
<polygon fill="none" stroke="black" points="0,-28.5 0,-64.5 162.5,-64.5 162.5,-28.5 0,-28.5"/>
<text text-anchor="middle" x="40.25" y="-41.2" font-family="Times New Roman,serif" font-size="14.00">data 2.0000</text>
<polyline fill="none" stroke="black" points="80.5,-28.75 80.5,-64.5"/>
<text text-anchor="middle" x="121.5" y="-41.2" font-family="Times New Roman,serif" font-size="14.00">grad 1.0000</text>
</g>
<!-- 2765279841936&#45;&gt;2765280217424* -->
<g id="edge4" class="edge">
<title>2765279841936&#45;&gt;2765280217424*</title>
<path fill="none" stroke="black" d="M162.93,-61.81C171.68,-63.47 180.23,-65.1 188.04,-66.58"/>
<polygon fill="black" stroke="black" points="187.29,-70 197.77,-68.43 188.6,-63.12 187.29,-70"/>
</g>
<!-- 2765280217424 -->
<g id="node5" class="node">
<title>2765280217424</title>
<polygon fill="none" stroke="black" points="288.5,-55.5 288.5,-91.5 451,-91.5 451,-55.5 288.5,-55.5"/>
<text text-anchor="middle" x="328.75" y="-68.2" font-family="Times New Roman,serif" font-size="14.00">data 2.0000</text>
<polyline fill="none" stroke="black" points="369,-55.75 369,-91.5"/>
<text text-anchor="middle" x="410" y="-68.2" font-family="Times New Roman,serif" font-size="14.00">grad 1.0000</text>
</g>
<!-- 2765280218576+ -->
<g id="node9" class="node">
<title>2765280218576+</title>
<ellipse fill="none" stroke="black" cx="514" cy="-45.5" rx="27" ry="18"/>
<text text-anchor="middle" x="514" y="-40.08" font-family="Times New Roman,serif" font-size="14.00">+</text>
</g>
<!-- 2765280217424&#45;&gt;2765280218576+ -->
<g id="edge5" class="edge">
<title>2765280217424&#45;&gt;2765280218576+</title>
<path fill="none" stroke="black" d="M451.43,-57.62C460.18,-55.9 468.73,-54.21 476.54,-52.68"/>
<polygon fill="black" stroke="black" points="477.13,-56.13 486.27,-50.76 475.78,-49.26 477.13,-56.13"/>
</g>
<!-- 2765280217424*&#45;&gt;2765280217424 -->
<g id="edge2" class="edge">
<title>2765280217424*&#45;&gt;2765280217424</title>
<path fill="none" stroke="black" d="M252.92,-73.5C260.02,-73.5 268.11,-73.5 276.65,-73.5"/>
<polygon fill="black" stroke="black" points="276.56,-77 286.56,-73.5 276.56,-70 276.56,-77"/>
</g>
<!-- 2765280218528 -->
<g id="node7" class="node">
<title>2765280218528</title>
<polygon fill="none" stroke="black" points="288.5,-0.5 288.5,-36.5 451,-36.5 451,-0.5 288.5,-0.5"/>
<text text-anchor="middle" x="328.75" y="-13.2" font-family="Times New Roman,serif" font-size="14.00">data 1.0000</text>
<polyline fill="none" stroke="black" points="369,-0.75 369,-36.5"/>
<text text-anchor="middle" x="410" y="-13.2" font-family="Times New Roman,serif" font-size="14.00">grad 1.0000</text>
</g>
<!-- 2765280218528&#45;&gt;2765280218576+ -->
<g id="edge8" class="edge">
<title>2765280218528&#45;&gt;2765280218576+</title>
<path fill="none" stroke="black" d="M451.43,-33.81C460.18,-35.47 468.73,-37.1 476.54,-38.58"/>
<polygon fill="black" stroke="black" points="475.79,-42 486.27,-40.43 477.1,-35.12 475.79,-42"/>
</g>
<!-- 2765280218576 -->
<g id="node8" class="node">
<title>2765280218576</title>
<polygon fill="none" stroke="black" points="577,-27.5 577,-63.5 739.5,-63.5 739.5,-27.5 577,-27.5"/>
<text text-anchor="middle" x="617.25" y="-40.2" font-family="Times New Roman,serif" font-size="14.00">data 3.0000</text>
<polyline fill="none" stroke="black" points="657.5,-27.75 657.5,-63.5"/>
<text text-anchor="middle" x="698.5" y="-40.2" font-family="Times New Roman,serif" font-size="14.00">grad 1.0000</text>
</g>
<!-- 2765280218576&#45;&gt;2765280218720ReLU -->
<g id="edge6" class="edge">
<title>2765280218576&#45;&gt;2765280218720ReLU</title>
<path fill="none" stroke="black" d="M739.94,-45.5C748.14,-45.5 756.24,-45.5 763.83,-45.5"/>
<polygon fill="black" stroke="black" points="763.75,-49 773.75,-45.5 763.75,-42 763.75,-49"/>
</g>
<!-- 2765280218576+&#45;&gt;2765280218576 -->
<g id="edge3" class="edge">
<title>2765280218576+&#45;&gt;2765280218576</title>
<path fill="none" stroke="black" d="M541.42,-45.5C548.52,-45.5 556.61,-45.5 565.15,-45.5"/>
<polygon fill="black" stroke="black" points="565.06,-49 575.06,-45.5 565.06,-42 565.06,-49"/>
</g>
</g>
</svg>
